<svg id="e2o97vUOpdM1" xmlns="http://www.w3.org/2000/svg" xmlns:xlink="http://www.w3.org/1999/xlink" viewBox="0 0 300 300" shape-rendering="geometricPrecision" text-rendering="geometricPrecision" style="background-color:#000"><g transform="translate(16.763523 0)"><rect width="87.840859" height="97.027269" rx="0" ry="0" transform="matrix(.389314 0 0 2.109886 150 47.641762)" fill="#d2dbed" stroke-width="0"/><rect width="103.263299" height="30.844882" rx="0" ry="0" transform="translate(150.335314 47.641762)" fill="#d2dbed" stroke-width="0"/><rect width="103.263299" height="30.844882" rx="0" ry="0" transform="translate(150.335314 134.577559)" fill="#d2dbed" stroke-width="0"/><rect width="103.263299" height="30.844882" rx="0" ry="0" transform="translate(150.335314 221.513356)" fill="#d2dbed" stroke-width="0"/></g><g transform="translate(.715245 0)"><rect width="103.263299" height="30.844882" rx="0" ry="0" transform="matrix(.738013 0.674786-.674786 0.738013 68.174027 47.641762)" fill="#d2dbed" stroke-width="0"/><rect width="103.263299" height="30.844882" rx="0" ry="0" transform="matrix(.782188 0.623043-.623043 0.782188 56.969177 163.894275)" fill="#d2dbed" stroke-width="0"/><rect width="103.263299" height="30.844882" rx="0" ry="0" transform="matrix(-.681549 0.731772-.731772-.681549 144.045706 116.886349)" fill="#d2dbed" stroke-width="0"/><rect width="87.840859" height="97.027269" rx="0" ry="0" transform="matrix(.389314 0 0 2.109886 33.996423 47.641762)" fill="#d2dbed" stroke-width="0"/></g></svg>
